{"scene":0,"asset":{"generator":"ImageToStl.com","version":"2.0"},"scenes":[{"name":"Scene","nodes":[0]}],"nodes":[{"name":"Node0","children":[1,2,3,4,5,6,7,8,9,10,11,12,13,14,15,16,17,18,19,20,21,22,23]},{"name":"Node1","mesh":0},{"name":"Node2","mesh":1},{"name":"Node3","mesh":2},{"name":"Node4","mesh":3},{"name":"Node5","mesh":4},{"name":"Node6","mesh":5},{"name":"Node7","mesh":6},{"name":"Node8","mesh":7},{"name":"Node9","mesh":8},{"name":"Node10","mesh":9},{"name":"Node11","mesh":10},{"name":"Node12","mesh":11},{"name":"Node13","mesh":12},{"name":"Node14","mesh":13},{"name":"Node15","mesh":14},{"name":"Node16","mesh":15},{"name":"Node17","mesh":16},{"name":"Node18","mesh":17},{"name":"Node19","mesh":18},{"name":"Node20","mesh":19},{"name":"Node21","mesh":20},{"name":"Node22","mesh":21},{"name":"Node23","mesh":22}],"materials":[{"name":"x1","pbrMetallicRoughness":{"baseColorFactor":[0.85,0.85,0.85,1.0],"metallicFactor":0.05,"roughnessFactor":0.5},"doubleSided":true}],"meshes":[{"name":"Mesh0","primitives":[{"indices":3,"material":0,"attributes":{"POSITION":0,"NORMAL":1,"TEXCOORD_0":2}}]},{"name":"Mesh0","primitives":[{"indices":7,"material":0,"attributes":{"POSITION":4,"NORMAL":5,"TEXCOORD_0":6}}]},{"name":"Mesh0","primitives":[{"indices":11,"material":0,"attributes":{"POSITION":8,"NORMAL":9,"TEXCOORD_0":10}}]},{"name":"Mesh0","primitives":[{"indices":15,"material":0,"attributes":{"POSITION":12,"NORMAL":13,"TEXCOORD_0":14}}]},{"name":"Mesh0","primitives":[{"indices":19,"material":0,"attributes":{"POSITION":16,"NORMAL":17,"TEXCOORD_0":18}}]},{"name":"Mesh0","primitives":[{"indices":23,"material":0,"attributes":{"POSITION":20,"NORMAL":21,"TEXCOORD_0":22}}]},{"name":"Mesh0","primitives":[{"indices":27,"material":0,"attributes":{"POSITION":24,"NORMAL":25,"TEXCOORD_0":26}}]},{"name":"Mesh0","primitives":[{"indices":31,"material":0,"attributes":{"POSITION":28,"NORMAL":29,"TEXCOORD_0":30}}]},{"name":"Mesh0","primitives":[{"indices":35,"material":0,"attributes":{"POSITION":32,"NORMAL":33,"TEXCOORD_0":34}}]},{"name":"Mesh0","primitives":[{"indices":39,"material":0,"attributes":{"POSITION":36,"NORMAL":37,"TEXCOORD_0":38}}]},{"name":"Mesh0","primitives":[{"indices":43,"material":0,"attributes":{"POSITION":40,"NORMAL":41,"TEXCOORD_0":42}}]},{"name":"Mesh0","primitives":[{"indices":47,"material":0,"attributes":{"POSITION":44,"NORMAL":45,"TEXCOORD_0":46}}]},{"name":"Mesh0","primitives":[{"indices":51,"material":0,"attributes":{"POSITION":48,"NORMAL":49,"TEXCOORD_0":50}}]},{"name":"Mesh0","primitives":[{"indices":55,"material":0,"attributes":{"POSITION":52,"NORMAL":53,"TEXCOORD_0":54}}]},{"name":"Mesh0","primitives":[{"indices":59,"material":0,"attributes":{"POSITION":56,"NORMAL":57,"TEXCOORD_0":58}}]},{"name":"Mesh0","primitives":[{"indices":63,"material":0,"attributes":{"POSITION":60,"NORMAL":61,"TEXCOORD_0":62}}]},{"name":"Mesh0","primitives":[{"indices":67,"material":0,"attributes":{"POSITION":64,"NORMAL":65,"TEXCOORD_0":66}}]},{"name":"Mesh0","primitives":[{"indices":71,"material":0,"attributes":{"POSITION":68,"NORMAL":69,"TEXCOORD_0":70}}]},{"name":"Mesh0","primitives":[{"indices":75,"material":0,"attributes":{"POSITION":72,"NORMAL":73,"TEXCOORD_0":74}}]},{"name":"Mesh0","primitives":[{"indices":79,"material":0,"attributes":{"POSITION":76,"NORMAL":77,"TEXCOORD_0":78}}]},{"name":"Mesh0","primitives":[{"indices":83,"material":0,"attributes":{"POSITION":80,"NORMAL":81,"TEXCOORD_0":82}}]},{"name":"Mesh0","primitives":[{"indices":87,"material":0,"attributes":{"POSITION":84,"NORMAL":85,"TEXCOORD_0":86}}]},{"name":"Mesh0","primitives":[{"indices":91,"material":0,"attributes":{"POSITION":88,"NORMAL":89,"TEXCOORD_0":90}}]}],"accessors":[{"bufferView":0,"componentType":5126,"count":152,"type":"VEC3","min":[2.2334,3.5674,-1.963],"max":[2.5394,4.0284,-0.561]},{"bufferView":1,"componentType":5126,"count":152,"type":"VEC3"},{"bufferView":2,"componentType":5126,"count":152,"type":"VEC2"},{"bufferView":3,"componentType":5123,"count":1332,"type":"SCALAR"},{"bufferView":4,"componentType":5126,"count":96,"type":"VEC3","min":[-2.4606,1.4357,-2.3567],"max":[2.2638,6.1601,-0.561]},{"bufferView":5,"componentType":5126,"count":96,"type":"VEC3"},{"bufferView":6,"componentType":5126,"count":96,"type":"VEC2"},{"bufferView":7,"componentType":5123,"count":828,"type":"SCALAR"},{"bufferView":8,"componentType":5126,"count":152,"type":"VEC3","min":[-1.4961,5.7021,-1.963],"max":[-1.0647,6.1034,-0.561]},{"bufferView":9,"componentType":5126,"count":152,"type":"VEC3"},{"bufferView":10,"componentType":5126,"count":152,"type":"VEC2"},{"bufferView":11,"componentType":5123,"count":1332,"type":"SCALAR"},{"bufferView":12,"componentType":5126,"count":152,"type":"VEC3","min":[-1.4961,1.4924,-1.963],"max":[-1.0647,1.8937,-0.561]},{"bufferView":13,"componentType":5126,"count":152,"type":"VEC3"},{"bufferView":14,"componentType":5126,"count":152,"type":"VEC2"},{"bufferView":15,"componentType":5123,"count":1332,"type":"SCALAR"},{"bufferView":16,"componentType":5126,"count":96,"type":"VEC3","min":[-2.4606,1.4357,-2.8292],"max":[2.2638,6.1601,-2.3567]},{"bufferView":17,"componentType":5126,"count":96,"type":"VEC3"},{"bufferView":18,"componentType":5126,"count":96,"type":"VEC2"},{"bufferView":19,"componentType":5123,"count":828,"type":"SCALAR"},{"bufferView":20,"componentType":5126,"count":484,"type":"VEC3","min":[-1.2795,0.0,-2.9079],"max":[1.0827,1.7522,-2.278]},{"bufferView":21,"componentType":5126,"count":484,"type":"VEC3"},{"bufferView":22,"componentType":5126,"count":484,"type":"VEC2"},{"bufferView":23,"componentType":5123,"count":4212,"type":"SCALAR"},{"bufferView":24,"componentType":5126,"count":96,"type":"VEC3","min":[-0.3346,3.5617,-3.1477],"max":[0.1378,4.0341,3.3446]},{"bufferView":25,"componentType":5126,"count":96,"type":"VEC3"},{"bufferView":26,"componentType":5126,"count":96,"type":"VEC2"},{"bufferView":27,"componentType":5123,"count":828,"type":"SCALAR"},{"bufferView":28,"componentType":5126,"count":96,"type":"VEC3","min":[-1.7297,2.1666,2.0536],"max":[1.5329,5.4292,2.6359]},{"bufferView":29,"componentType":5126,"count":96,"type":"VEC3"},{"bufferView":30,"componentType":5126,"count":96,"type":"VEC2"},{"bufferView":31,"componentType":5123,"count":828,"type":"SCALAR"},{"bufferView":32,"componentType":5126,"count":4,"type":"VEC3","min":[-0.0984,4.7428,2.9548],"max":[-0.0984,4.979,3.2619]},{"bufferView":33,"componentType":5126,"count":4,"type":"VEC3"},{"bufferView":34,"componentType":5126,"count":4,"type":"VEC2"},{"bufferView":35,"componentType":5123,"count":18,"type":"SCALAR"},{"bufferView":36,"componentType":5126,"count":96,"type":"VEC3","min":[-2.5394,1.3569,1.8411],"max":[2.3425,6.2388,2.0536]},{"bufferView":37,"componentType":5126,"count":96,"type":"VEC3"},{"bufferView":38,"componentType":5126,"count":96,"type":"VEC2"},{"bufferView":39,"componentType":5123,"count":828,"type":"SCALAR"},{"bufferView":40,"componentType":5126,"count":96,"type":"VEC3","min":[-2.4606,1.4357,0.5958],"max":[2.2638,6.1601,1.8411]},{"bufferView":41,"componentType":5126,"count":96,"type":"VEC3"},{"bufferView":42,"componentType":5126,"count":96,"type":"VEC2"},{"bufferView":43,"componentType":5123,"count":828,"type":"SCALAR"},{"bufferView":44,"componentType":5126,"count":152,"type":"VEC3","min":[2.2334,3.5674,0.5958],"max":[2.5394,4.0284,1.4054]},{"bufferView":45,"componentType":5126,"count":152,"type":"VEC3"},{"bufferView":46,"componentType":5126,"count":152,"type":"VEC2"},{"bufferView":47,"componentType":5123,"count":1332,"type":"SCALAR"},{"bufferView":48,"componentType":5126,"count":484,"type":"VEC3","min":[-1.2795,5.8436,0.8542],"max":[1.0827,7.5958,1.4842]},{"bufferView":49,"componentType":5126,"count":484,"type":"VEC3"},{"bufferView":50,"componentType":5126,"count":484,"type":"VEC2"},{"bufferView":51,"componentType":5123,"count":4644,"type":"SCALAR"},{"bufferView":52,"componentType":5126,"count":484,"type":"VEC3","min":[-1.2795,0.0,0.8542],"max":[1.0827,1.7522,1.4842]},{"bufferView":53,"componentType":5126,"count":484,"type":"VEC3"},{"bufferView":54,"componentType":5126,"count":484,"type":"VEC2"},{"bufferView":55,"componentType":5123,"count":4212,"type":"SCALAR"},{"bufferView":56,"componentType":5126,"count":152,"type":"VEC3","min":[-1.4961,5.7021,0.5958],"max":[-1.0647,6.1034,1.4054]},{"bufferView":57,"componentType":5126,"count":152,"type":"VEC3"},{"bufferView":58,"componentType":5126,"count":152,"type":"VEC2"},{"bufferView":59,"componentType":5123,"count":1332,"type":"SCALAR"},{"bufferView":60,"componentType":5126,"count":152,"type":"VEC3","min":[-1.4961,1.4924,0.5958],"max":[-1.0647,1.8937,1.4054]},{"bufferView":61,"componentType":5126,"count":152,"type":"VEC3"},{"bufferView":62,"componentType":5126,"count":152,"type":"VEC2"},{"bufferView":63,"componentType":5123,"count":1332,"type":"SCALAR"},{"bufferView":64,"componentType":5126,"count":96,"type":"VEC3","min":[-0.8071,3.0892,-3.3052],"max":[0.6102,4.5065,-3.1477]},{"bufferView":65,"componentType":5126,"count":96,"type":"VEC3"},{"bufferView":66,"componentType":5126,"count":96,"type":"VEC2"},{"bufferView":67,"componentType":5123,"count":828,"type":"SCALAR"},{"bufferView":68,"componentType":5126,"count":72,"type":"VEC3","min":[-1.9427,1.9532,-3.1477],"max":[1.7466,5.6425,-2.8292]},{"bufferView":69,"componentType":5126,"count":72,"type":"VEC3"},{"bufferView":70,"componentType":5126,"count":72,"type":"VEC2"},{"bufferView":71,"componentType":5123,"count":630,"type":"SCALAR"},{"bufferView":72,"componentType":5126,"count":96,"type":"VEC3","min":[0.9592,3.9173,-3.2264],"max":[1.7466,4.7047,-2.8292]},{"bufferView":73,"componentType":5126,"count":96,"type":"VEC3"},{"bufferView":74,"componentType":5126,"count":96,"type":"VEC2"},{"bufferView":75,"componentType":5123,"count":828,"type":"SCALAR"},{"bufferView":76,"componentType":5126,"count":336,"type":"VEC3","min":[-1.0301,5.1597,-3.3446],"max":[-0.5527,5.6371,-2.8292]},{"bufferView":77,"componentType":5126,"count":336,"type":"VEC3"},{"bufferView":78,"componentType":5126,"count":336,"type":"VEC2"},{"bufferView":79,"componentType":5123,"count":3222,"type":"SCALAR"},{"bufferView":80,"componentType":5126,"count":24,"type":"VEC3","min":[-2.3801,3.5677,-3.2264],"max":[-0.3111,5.4682,-2.8292]},{"bufferView":81,"componentType":5126,"count":24,"type":"VEC3"},{"bufferView":82,"componentType":5126,"count":24,"type":"VEC2"},{"bufferView":83,"componentType":5123,"count":108,"type":"SCALAR"},{"bufferView":84,"componentType":5126,"count":696,"type":"VEC3","min":[-1.2795,2.6168,2.6359],"max":[1.0827,4.979,3.3446]},{"bufferView":85,"componentType":5126,"count":696,"type":"VEC3"},{"bufferView":86,"componentType":5126,"count":696,"type":"VEC2"},{"bufferView":87,"componentType":5123,"count":6210,"type":"SCALAR"},{"bufferView":88,"componentType":5126,"count":192,"type":"VEC3","min":[-2.3819,1.5144,-0.561],"max":[2.185,6.0813,0.5958]},{"bufferView":89,"componentType":5126,"count":192,"type":"VEC3"},{"bufferView":90,"componentType":5126,"count":192,"type":"VEC2"},{"bufferView":91,"componentType":5123,"count":1728,"type":"SCALAR"}],"bufferViews":[{"target":34962,"buffer":0,"byteLength":1824,"byteOffset":0},{"target":34962,"buffer":0,"byteLength":1824,"byteOffset":1824},{"target":34962,"buffer":0,"byteLength":1216,"byteOffset":3648},{"target":34963,"buffer":0,"byteLength":2664,"byteOffset":4864},{"target":34962,"buffer":0,"byteLength":1152,"byteOffset":7528},{"target":34962,"buffer":0,"byteLength":1152,"byteOffset":8680},{"target":34962,"buffer":0,"byteLength":768,"byteOffset":9832},{"target":34963,"buffer":0,"byteLength":1656,"byteOffset":10600},{"target":34962,"buffer":0,"byteLength":1824,"byteOffset":12256},{"target":34962,"buffer":0,"byteLength":1824,"byteOffset":14080},{"target":34962,"buffer":0,"byteLength":1216,"byteOffset":15904},{"target":34963,"buffer":0,"byteLength":2664,"byteOffset":17120},{"target":34962,"buffer":0,"byteLength":1824,"byteOffset":19784},{"target":34962,"buffer":0,"byteLength":1824,"byteOffset":21608},{"target":34962,"buffer":0,"byteLength":1216,"byteOffset":23432},{"target":34963,"buffer":0,"byteLength":2664,"byteOffset":24648},{"target":34962,"buffer":0,"byteLength":1152,"byteOffset":27312},{"target":34962,"buffer":0,"byteLength":1152,"byteOffset":28464},{"target":34962,"buffer":0,"byteLength":768,"byteOffset":29616},{"target":34963,"buffer":0,"byteLength":1656,"byteOffset":30384},{"target":34962,"buffer":0,"byteLength":5808,"byteOffset":32040},{"target":34962,"buffer":0,"byteLength":5808,"byteOffset":37848},{"target":34962,"buffer":0,"byteLength":3872,"byteOffset":43656},{"target":34963,"buffer":0,"byteLength":8424,"byteOffset":47528},{"target":34962,"buffer":0,"byteLength":1152,"byteOffset":55952},{"target":34962,"buffer":0,"byteLength":1152,"byteOffset":57104},{"target":34962,"buffer":0,"byteLength":768,"byteOffset":58256},{"target":34963,"buffer":0,"byteLength":1656,"byteOffset":59024},{"target":34962,"buffer":0,"byteLength":1152,"byteOffset":60680},{"target":34962,"buffer":0,"byteLength":1152,"byteOffset":61832},{"target":34962,"buffer":0,"byteLength":768,"byteOffset":62984},{"target":34963,"buffer":0,"byteLength":1656,"byteOffset":63752},{"target":34962,"buffer":0,"byteLength":48,"byteOffset":65408},{"target":34962,"buffer":0,"byteLength":48,"byteOffset":65456},{"target":34962,"buffer":0,"byteLength":32,"byteOffset":65504},{"target":34963,"buffer":0,"byteLength":36,"byteOffset":65536},{"target":34962,"buffer":0,"byteLength":1152,"byteOffset":65572},{"target":34962,"buffer":0,"byteLength":1152,"byteOffset":66724},{"target":34962,"buffer":0,"byteLength":768,"byteOffset":67876},{"target":34963,"buffer":0,"byteLength":1656,"byteOffset":68644},{"target":34962,"buffer":0,"byteLength":1152,"byteOffset":70300},{"target":34962,"buffer":0,"byteLength":1152,"byteOffset":71452},{"target":34962,"buffer":0,"byteLength":768,"byteOffset":72604},{"target":34963,"buffer":0,"byteLength":1656,"byteOffset":73372},{"target":34962,"buffer":0,"byteLength":1824,"byteOffset":75028},{"target":34962,"buffer":0,"byteLength":1824,"byteOffset":76852},{"target":34962,"buffer":0,"byteLength":1216,"byteOffset":78676},{"target":34963,"buffer":0,"byteLength":2664,"byteOffset":79892},{"target":34962,"buffer":0,"byteLength":5808,"byteOffset":82556},{"target":34962,"buffer":0,"byteLength":5808,"byteOffset":88364},{"target":34962,"buffer":0,"byteLength":3872,"byteOffset":94172},{"target":34963,"buffer":0,"byteLength":9288,"byteOffset":98044},{"target":34962,"buffer":0,"byteLength":5808,"byteOffset":107332},{"target":34962,"buffer":0,"byteLength":5808,"byteOffset":113140},{"target":34962,"buffer":0,"byteLength":3872,"byteOffset":118948},{"target":34963,"buffer":0,"byteLength":8424,"byteOffset":122820},{"target":34962,"buffer":0,"byteLength":1824,"byteOffset":131244},{"target":34962,"buffer":0,"byteLength":1824,"byteOffset":133068},{"target":34962,"buffer":0,"byteLength":1216,"byteOffset":134892},{"target":34963,"buffer":0,"byteLength":2664,"byteOffset":136108},{"target":34962,"buffer":0,"byteLength":1824,"byteOffset":138772},{"target":34962,"buffer":0,"byteLength":1824,"byteOffset":140596},{"target":34962,"buffer":0,"byteLength":1216,"byteOffset":142420},{"target":34963,"buffer":0,"byteLength":2664,"byteOffset":143636},{"target":34962,"buffer":0,"byteLength":1152,"byteOffset":146300},{"target":34962,"buffer":0,"byteLength":1152,"byteOffset":147452},{"target":34962,"buffer":0,"byteLength":768,"byteOffset":148604},{"target":34963,"buffer":0,"byteLength":1656,"byteOffset":149372},{"target":34962,"buffer":0,"byteLength":864,"byteOffset":151028},{"target":34962,"buffer":0,"byteLength":864,"byteOffset":151892},{"target":34962,"buffer":0,"byteLength":576,"byteOffset":152756},{"target":34963,"buffer":0,"byteLength":1260,"byteOffset":153332},{"target":34962,"buffer":0,"byteLength":1152,"byteOffset":154592},{"target":34962,"buffer":0,"byteLength":1152,"byteOffset":155744},{"target":34962,"buffer":0,"byteLength":768,"byteOffset":156896},{"target":34963,"buffer":0,"byteLength":1656,"byteOffset":157664},{"target":34962,"buffer":0,"byteLength":4032,"byteOffset":159320},{"target":34962,"buffer":0,"byteLength":4032,"byteOffset":163352},{"target":34962,"buffer":0,"byteLength":2688,"byteOffset":167384},{"target":34963,"buffer":0,"byteLength":6444,"byteOffset":170072},{"target":34962,"buffer":0,"byteLength":288,"byteOffset":176516},{"target":34962,"buffer":0,"byteLength":288,"byteOffset":176804},{"target":34962,"buffer":0,"byteLength":192,"byteOffset":177092},{"target":34963,"buffer":0,"byteLength":216,"byteOffset":177284},{"target":34962,"buffer":0,"byteLength":8352,"byteOffset":177500},{"target":34962,"buffer":0,"byteLength":8352,"byteOffset":185852},{"target":34962,"buffer":0,"byteLength":5568,"byteOffset":194204},{"target":34963,"buffer":0,"byteLength":12420,"byteOffset":199772},{"target":34962,"buffer":0,"byteLength":2304,"byteOffset":212192},{"target":34962,"buffer":0,"byteLength":2304,"byteOffset":214496},{"target":34962,"buffer":0,"byteLength":1536,"byteOffset":216800},{"target":34963,"buffer":0,"byteLength":3456,"byteOffset":218336}],"buffers":[{"byteLength":221792,"uri":"data:application/octet-stream;base64,"}]}