{"scene":0,"asset":{"generator":"ImageToStl.com","version":"2.0"},"scenes":[{"name":"Scene","nodes":[0]}],"nodes":[{"name":"Node0","children":[1,2,3,4,5,6,7,8,9,10,11,12,13,14,15,16]},{"name":"Node1","mesh":0},{"name":"Node2","mesh":1},{"name":"Node3","mesh":2},{"name":"Node4","mesh":3},{"name":"Node5","mesh":4},{"name":"Node6","mesh":5},{"name":"Node7","mesh":6},{"name":"Node8","mesh":7},{"name":"Node9","mesh":8},{"name":"Node10","mesh":9},{"name":"Node11","mesh":10},{"name":"Node12","mesh":11},{"name":"Node13","mesh":12},{"name":"Node14","mesh":13},{"name":"Node15","mesh":14},{"name":"Node16","mesh":15}],"materials":[{"name":"x1","pbrMetallicRoughness":{"baseColorFactor":[0.85,0.85,0.85,1.0],"metallicFactor":0.05,"roughnessFactor":0.5},"doubleSided":true}],"meshes":[{"name":"Mesh0","primitives":[{"indices":3,"material":0,"attributes":{"POSITION":0,"NORMAL":1,"TEXCOORD_0":2}}]},{"name":"Mesh0","primitives":[{"indices":7,"material":0,"attributes":{"POSITION":4,"NORMAL":5,"TEXCOORD_0":6}}]},{"name":"Mesh0","primitives":[{"indices":11,"material":0,"attributes":{"POSITION":8,"NORMAL":9,"TEXCOORD_0":10}}]},{"name":"Mesh0","primitives":[{"indices":15,"material":0,"attributes":{"POSITION":12,"NORMAL":13,"TEXCOORD_0":14}}]},{"name":"Mesh0","primitives":[{"indices":18,"material":0,"attributes":{"POSITION":16,"NORMAL":17}}]},{"name":"Mesh0","primitives":[{"indices":21,"material":0,"attributes":{"POSITION":19,"NORMAL":20}}]},{"name":"Mesh0","primitives":[{"indices":24,"material":0,"attributes":{"POSITION":22,"NORMAL":23}}]},{"name":"Mesh0","primitives":[{"indices":27,"material":0,"attributes":{"POSITION":25,"NORMAL":26}}]},{"name":"Mesh0","primitives":[{"indices":30,"material":0,"attributes":{"POSITION":28,"NORMAL":29}}]},{"name":"Mesh0","primitives":[{"indices":33,"material":0,"attributes":{"POSITION":31,"NORMAL":32}}]},{"name":"Mesh0","primitives":[{"indices":36,"material":0,"attributes":{"POSITION":34,"NORMAL":35}}]},{"name":"Mesh0","primitives":[{"indices":39,"material":0,"attributes":{"POSITION":37,"NORMAL":38}}]},{"name":"Mesh0","primitives":[{"indices":42,"material":0,"attributes":{"POSITION":40,"NORMAL":41}}]},{"name":"Mesh0","primitives":[{"indices":45,"material":0,"attributes":{"POSITION":43,"NORMAL":44}}]},{"name":"Mesh0","primitives":[{"indices":48,"material":0,"attributes":{"POSITION":46,"NORMAL":47}}]},{"name":"Mesh0","primitives":[{"indices":51,"material":0,"attributes":{"POSITION":49,"NORMAL":50}}]}],"accessors":[{"bufferView":0,"componentType":5126,"count":13152,"type":"VEC3","min":[-2.04,-2.031656,-0.021598],"max":[2.04,2.048904,0.56242]},{"bufferView":1,"componentType":5126,"count":13152,"type":"VEC3"},{"bufferView":2,"componentType":5126,"count":13152,"type":"VEC2"},{"bufferView":3,"componentType":5123,"count":95742,"type":"SCALAR"},{"bufferView":4,"componentType":5126,"count":582,"type":"VEC3","min":[-2.190353,-1.709001,-0.23164],"max":[-1.29389,1.706958,0.78296]},{"bufferView":5,"componentType":5126,"count":582,"type":"VEC3"},{"bufferView":6,"componentType":5126,"count":582,"type":"VEC2"},{"bufferView":7,"componentType":5123,"count":5940,"type":"SCALAR"},{"bufferView":8,"componentType":5126,"count":80,"type":"VEC3","min":[-1.858338,-1.232967,0.008936],"max":[-1.188365,1.214486,0.067871]},{"bufferView":9,"componentType":5126,"count":80,"type":"VEC3"},{"bufferView":10,"componentType":5126,"count":80,"type":"VEC2"},{"bufferView":11,"componentType":5123,"count":648,"type":"SCALAR"},{"bufferView":12,"componentType":5126,"count":80,"type":"VEC3","min":[-1.858338,-1.232967,0.483691],"max":[-1.188365,1.214486,0.542626]},{"bufferView":13,"componentType":5126,"count":80,"type":"VEC3"},{"bufferView":14,"componentType":5126,"count":80,"type":"VEC2"},{"bufferView":15,"componentType":5123,"count":648,"type":"SCALAR"},{"bufferView":16,"componentType":5126,"count":176,"type":"VEC3","min":[-0.48035,1.152124,0.012764],"max":[-0.379705,1.252768,0.037278]},{"bufferView":17,"componentType":5126,"count":176,"type":"VEC3"},{"bufferView":18,"componentType":5123,"count":324,"type":"SCALAR"},{"bufferView":19,"componentType":5126,"count":176,"type":"VEC3","min":[-1.032843,0.765326,0.012764],"max":[-0.933216,0.864953,0.037278]},{"bufferView":20,"componentType":5126,"count":176,"type":"VEC3"},{"bufferView":21,"componentType":5123,"count":324,"type":"SCALAR"},{"bufferView":22,"componentType":5126,"count":176,"type":"VEC3","min":[-1.31107,0.151371,0.012764],"max":[-1.211024,0.251417,0.037278]},{"bufferView":23,"componentType":5126,"count":176,"type":"VEC3"},{"bufferView":24,"componentType":5123,"count":324,"type":"SCALAR"},{"bufferView":25,"componentType":5126,"count":176,"type":"VEC3","min":[-1.240328,-0.513597,0.012764],"max":[-1.139722,-0.412992,0.037278]},{"bufferView":26,"componentType":5126,"count":176,"type":"VEC3"},{"bufferView":27,"componentType":5123,"count":324,"type":"SCALAR"},{"bufferView":28,"componentType":5126,"count":176,"type":"VEC3","min":[-0.84231,-1.050874,0.012763],"max":[-0.743033,-0.951596,0.037278]},{"bufferView":29,"componentType":5126,"count":176,"type":"VEC3"},{"bufferView":30,"componentType":5123,"count":324,"type":"SCALAR"},{"bufferView":31,"componentType":5126,"count":176,"type":"VEC3","min":[-0.222016,-1.315546,0.012763],"max":[-0.121741,-1.215271,0.037278]},{"bufferView":32,"componentType":5126,"count":176,"type":"VEC3"},{"bufferView":33,"componentType":5123,"count":324,"type":"SCALAR"},{"bufferView":34,"componentType":5126,"count":176,"type":"VEC3","min":[0.43192,-1.232767,0.012763],"max":[0.532468,-1.132219,0.037277]},{"bufferView":35,"componentType":5126,"count":176,"type":"VEC3"},{"bufferView":36,"componentType":5123,"count":324,"type":"SCALAR"},{"bufferView":37,"componentType":5126,"count":176,"type":"VEC3","min":[0.943768,-0.852081,0.012764],"max":[1.043202,-0.752647,0.037278]},{"bufferView":38,"componentType":5126,"count":176,"type":"VEC3"},{"bufferView":39,"componentType":5123,"count":324,"type":"SCALAR"},{"bufferView":40,"componentType":5126,"count":176,"type":"VEC3","min":[1.210038,-0.257639,0.012764],"max":[1.310029,-0.157649,0.037278]},{"bufferView":41,"componentType":5126,"count":176,"type":"VEC3"},{"bufferView":42,"componentType":5123,"count":324,"type":"SCALAR"},{"bufferView":43,"componentType":5126,"count":176,"type":"VEC3","min":[1.149436,0.387153,0.012764],"max":[1.250078,0.487795,0.037278]},{"bufferView":44,"componentType":5126,"count":176,"type":"VEC3"},{"bufferView":45,"componentType":5123,"count":324,"type":"SCALAR"},{"bufferView":46,"componentType":5126,"count":176,"type":"VEC3","min":[0.77874,0.921763,0.012764],"max":[0.878555,1.021578,0.037278]},{"bufferView":47,"componentType":5126,"count":176,"type":"VEC3"},{"bufferView":48,"componentType":5123,"count":324,"type":"SCALAR"},{"bufferView":49,"componentType":5126,"count":176,"type":"VEC3","min":[0.178955,1.206464,0.012764],"max":[0.278738,1.306247,0.037278]},{"bufferView":50,"componentType":5126,"count":176,"type":"VEC3"},{"bufferView":51,"componentType":5123,"count":324,"type":"SCALAR"}],"bufferViews":[{"target":34962,"buffer":0,"byteLength":157824,"byteOffset":0},{"target":34962,"buffer":0,"byteLength":157824,"byteOffset":157824},{"target":34962,"buffer":0,"byteLength":105216,"byteOffset":315648},{"target":34963,"buffer":0,"byteLength":191484,"byteOffset":420864},{"target":34962,"buffer":0,"byteLength":6984,"byteOffset":612348},{"target":34962,"buffer":0,"byteLength":6984,"byteOffset":619332},{"target":34962,"buffer":0,"byteLength":4656,"byteOffset":626316},{"target":34963,"buffer":0,"byteLength":11880,"byteOffset":630972},{"target":34962,"buffer":0,"byteLength":960,"byteOffset":642852},{"target":34962,"buffer":0,"byteLength":960,"byteOffset":643812},{"target":34962,"buffer":0,"byteLength":640,"byteOffset":644772},{"target":34963,"buffer":0,"byteLength":1296,"byteOffset":645412},{"target":34962,"buffer":0,"byteLength":960,"byteOffset":646708},{"target":34962,"buffer":0,"byteLength":960,"byteOffset":647668},{"target":34962,"buffer":0,"byteLength":640,"byteOffset":648628},{"target":34963,"buffer":0,"byteLength":1296,"byteOffset":649268},{"target":34962,"buffer":0,"byteLength":2112,"byteOffset":650564},{"target":34962,"buffer":0,"byteLength":2112,"byteOffset":652676},{"target":34963,"buffer":0,"byteLength":648,"byteOffset":654788},{"target":34962,"buffer":0,"byteLength":2112,"byteOffset":655436},{"target":34962,"buffer":0,"byteLength":2112,"byteOffset":657548},{"target":34963,"buffer":0,"byteLength":648,"byteOffset":659660},{"target":34962,"buffer":0,"byteLength":2112,"byteOffset":660308},{"target":34962,"buffer":0,"byteLength":2112,"byteOffset":662420},{"target":34963,"buffer":0,"byteLength":648,"byteOffset":664532},{"target":34962,"buffer":0,"byteLength":2112,"byteOffset":665180},{"target":34962,"buffer":0,"byteLength":2112,"byteOffset":667292},{"target":34963,"buffer":0,"byteLength":648,"byteOffset":669404},{"target":34962,"buffer":0,"byteLength":2112,"byteOffset":670052},{"target":34962,"buffer":0,"byteLength":2112,"byteOffset":672164},{"target":34963,"buffer":0,"byteLength":648,"byteOffset":674276},{"target":34962,"buffer":0,"byteLength":2112,"byteOffset":674924},{"target":34962,"buffer":0,"byteLength":2112,"byteOffset":677036},{"target":34963,"buffer":0,"byteLength":648,"byteOffset":679148},{"target":34962,"buffer":0,"byteLength":2112,"byteOffset":679796},{"target":34962,"buffer":0,"byteLength":2112,"byteOffset":681908},{"target":34963,"buffer":0,"byteLength":648,"byteOffset":684020},{"target":34962,"buffer":0,"byteLength":2112,"byteOffset":684668},{"target":34962,"buffer":0,"byteLength":2112,"byteOffset":686780},{"target":34963,"buffer":0,"byteLength":648,"byteOffset":688892},{"target":34962,"buffer":0,"byteLength":2112,"byteOffset":689540},{"target":34962,"buffer":0,"byteLength":2112,"byteOffset":691652},{"target":34963,"buffer":0,"byteLength":648,"byteOffset":693764},{"target":34962,"buffer":0,"byteLength":2112,"byteOffset":694412},{"target":34962,"buffer":0,"byteLength":2112,"byteOffset":696524},{"target":34963,"buffer":0,"byteLength":648,"byteOffset":698636},{"target":34962,"buffer":0,"byteLength":2112,"byteOffset":699284},{"target":34962,"buffer":0,"byteLength":2112,"byteOffset":701396},{"target":34963,"buffer":0,"byteLength":648,"byteOffset":703508},{"target":34962,"buffer":0,"byteLength":2112,"byteOffset":704156},{"target":34962,"buffer":0,"byteLength":2112,"byteOffset":706268},{"target":34963,"buffer":0,"byteLength":648,"byteOffset":708380}],"buffers":[{"byteLength":709028,"uri":"data:application/octet-stream;base64,"}]}