{"accessors" : [{"bufferView" : 0, "byteOffset" : 0, "componentType" : 5123, "count" : 21555, "type" : "SCALAR", "max" : [3819], "min" : [0]}, {"bufferView" : 1, "byteOffset" : 0, "componentType" : 5126, "count" : 3820, "type" : "VEC3", "max" : [100.15892791748047, 134.50892639160156, 305.427734375], "min" : [19.629257202148438, -10.817941665649414, 95.60308074951172], "name" : "POSITION"}, {"bufferView" : 0, "byteOffset" : 43112, "componentType" : 5123, "count" : 8862, "type" : "SCALAR", "max" : [1394], "min" : [0]}, {"bufferView" : 2, "byteOffset" : 0, "componentType" : 5126, "count" : 1395, "type" : "VEC3", "max" : [104.77660369873047, 175.10557556152344, 158.2157745361328], "min" : [15.62951374053955, 70.2409896850586, 54.12785339355469], "name" : "POSITION"}, {"bufferView" : 0, "byteOffset" : 60836, "componentType" : 5123, "count" : 21555, "type" : "SCALAR", "max" : [3819], "min" : [0]}, {"bufferView" : 3, "byteOffset" : 0, "componentType" : 5126, "count" : 3820, "type" : "VEC3", "max" : [72.61676025390625, 182.34649658203125, 385.2841796875], "min" : [-7.912902355194092, -10.175721168518066, 209.26531982421875], "name" : "POSITION"}, {"bufferView" : 0, "byteOffset" : 103948, "componentType" : 5123, "count" : 8862, "type" : "SCALAR", "max" : [1394], "min" : [0]}, {"bufferView" : 4, "byteOffset" : 0, "componentType" : 5126, "count" : 1395, "type" : "VEC3", "max" : [77.23454284667969, 224.1038055419922, 425.9193115234375], "min" : [-11.91253662109375, 119.67901611328125, 321.35601806640625], "name" : "POSITION"}, {"bufferView" : 0, "byteOffset" : 121672, "componentType" : 5123, "count" : 21555, "type" : "SCALAR", "max" : [3819], "min" : [0]}, {"bufferView" : 5, "byteOffset" : 0, "componentType" : 5126, "count" : 3820, "type" : "VEC3", "max" : [-7.558032035827637, 116.41464233398438, 263.1063232421875], "min" : [-88.08769989013672, -89.38915252685547, 107.87805938720703], "name" : "POSITION"}, {"bufferView" : 0, "byteOffset" : 164784, "componentType" : 5123, "count" : 8862, "type" : "SCALAR", "max" : [1394], "min" : [0]}, {"bufferView" : 6, "byteOffset" : 0, "componentType" : 5126, "count" : 1395, "type" : "VEC3", "max" : [-2.940361499786377, 157.91993713378906, 170.61007690429688], "min" : [-92.08744812011719, 52.80373001098633, 66.84881591796875], "name" : "POSITION"}, {"bufferView" : 0, "byteOffset" : 182508, "componentType" : 5123, "count" : 21555, "type" : "SCALAR", "max" : [3819], "min" : [0]}, {"bufferView" : 7, "byteOffset" : 0, "componentType" : 5126, "count" : 3820, "type" : "VEC3", "max" : [-35.23370361328125, 116.83232116699219, 317.0291442871094], "min" : [-115.76335906982422, -88.31292724609375, 160.69110107421875], "name" : "POSITION"}, {"bufferView" : 0, "byteOffset" : 225620, "componentType" : 5123, "count" : 8862, "type" : "SCALAR", "max" : [1394], "min" : [0]}, {"bufferView" : 8, "byteOffset" : 0, "componentType" : 5126, "count" : 1395, "type" : "VEC3", "max" : [-30.615942001342773, 158.7689971923828, 357.5904846191406], "min" : [-119.76303100585938, 53.689151763916016, 253.7790069580078], "name" : "POSITION"}, {"bufferView" : 0, "byteOffset" : 243344, "componentType" : 5123, "count" : 21555, "type" : "SCALAR", "max" : [3819], "min" : [0]}, {"bufferView" : 9, "byteOffset" : 0, "componentType" : 5126, "count" : 3820, "type" : "VEC3", "max" : [-113.77935791015625, 182.6616973876953, 217.12680053710938], "min" : [-194.3090057373047, -10.70422649383545, 42.14333724975586], "name" : "POSITION"}, {"bufferView" : 0, "byteOffset" : 286456, "componentType" : 5123, "count" : 8862, "type" : "SCALAR", "max" : [1394], "min" : [0]}, {"bufferView" : 10, "byteOffset" : 0, "componentType" : 5126, "count" : 1395, "type" : "VEC3", "max" : [-109.16165161132812, 223.90640258789062, 104.48408508300781], "min" : [-198.30874633789062, 119.43292999267578, -0.031564466655254364], "name" : "POSITION"}, {"bufferView" : 0, "byteOffset" : 304180, "componentType" : 5123, "count" : 21555, "type" : "SCALAR", "max" : [3819], "min" : [0]}, {"bufferView" : 11, "byteOffset" : 0, "componentType" : 5126, "count" : 3820, "type" : "VEC3", "max" : [-141.040283203125, 133.71881103515625, 330.7852783203125], "min" : [-221.56991577148438, -10.832511901855469, 120.51976013183594], "name" : "POSITION"}, {"bufferView" : 0, "byteOffset" : 347292, "componentType" : 5123, "count" : 8862, "type" : "SCALAR", "max" : [1394], "min" : [0]}, {"bufferView" : 12, "byteOffset" : 0, "componentType" : 5126, "count" : 1395, "type" : "VEC3", "max" : [-136.42254638671875, 175.20579528808594, 371.9891052246094], "min" : [-225.5696258544922, 70.40380096435547, 267.8267822265625], "name" : "POSITION"}, {"bufferView" : 0, "byteOffset" : 365016, "componentType" : 5123, "count" : 38808, "type" : "SCALAR", "max" : [6435], "min" : [0]}, {"bufferView" : 13, "byteOffset" : 0, "componentType" : 5126, "count" : 6436, "type" : "VEC3", "max" : [146.54592895507812, 95.505615234375, 300.4975280761719], "min" : [-252.14129638671875, -74.72209930419922, 125.78295135498047], "name" : "POSITION"}, {"bufferView" : 0, "byteOffset" : 442632, "componentType" : 5123, "count" : 17628, "type" : "SCALAR", "max" : [2939], "min" : [0]}, {"bufferView" : 14, "byteOffset" : 0, "componentType" : 5126, "count" : 2940, "type" : "VEC3", "max" : [128.92991638183594, 160.74620056152344, 230.7355194091797], "min" : [-241.7564697265625, 119.79360961914062, 192.3342742919922], "name" : "POSITION"}], "asset" : {"generator" : "Aspose.3D 24.9.1", "version" : "2.0"}, "buffers" : [{"uri" : "data:application/octet-stream;base64,", "byteLength" : 965940}], "bufferViews" : [{"buffer" : 0, "byteOffset" : 0, "byteLength" : 477888, "target" : 34963}, {"buffer" : 0, "byteOffset" : 477892, "byteLength" : 45840, "byteStride" : 12, "target" : 34962}, {"buffer" : 0, "byteOffset" : 523736, "byteLength" : 16740, "byteStride" : 12, "target" : 34962}, {"buffer" : 0, "byteOffset" : 540480, "byteLength" : 45840, "byteStride" : 12, "target" : 34962}, {"buffer" : 0, "byteOffset" : 586324, "byteLength" : 16740, "byteStride" : 12, "target" : 34962}, {"buffer" : 0, "byteOffset" : 603068, "byteLength" : 45840, "byteStride" : 12, "target" : 34962}, {"buffer" : 0, "byteOffset" : 648912, "byteLength" : 16740, "byteStride" : 12, "target" : 34962}, {"buffer" : 0, "byteOffset" : 665656, "byteLength" : 45840, "byteStride" : 12, "target" : 34962}, {"buffer" : 0, "byteOffset" : 711500, "byteLength" : 16740, "byteStride" : 12, "target" : 34962}, {"buffer" : 0, "byteOffset" : 728244, "byteLength" : 45840, "byteStride" : 12, "target" : 34962}, {"buffer" : 0, "byteOffset" : 774088, "byteLength" : 16740, "byteStride" : 12, "target" : 34962}, {"buffer" : 0, "byteOffset" : 790832, "byteLength" : 45840, "byteStride" : 12, "target" : 34962}, {"buffer" : 0, "byteOffset" : 836676, "byteLength" : 16740, "byteStride" : 12, "target" : 34962}, {"buffer" : 0, "byteOffset" : 853420, "byteLength" : 77232, "byteStride" : 12, "target" : 34962}, {"buffer" : 0, "byteOffset" : 930656, "byteLength" : 35280, "byteStride" : 12, "target" : 34962}], "materials" : [{"name" : "Material", "pbrMetallicRoughness" : {"baseColorFactor" : [0.11764706, 0.11764706, 0.11764706, 1], "metallicFactor" : 0, "roughnessFactor" : 1}, "emissiveFactor" : [0, 0, 0], "alphaMode" : "OPAQUE", "doubleSided" : true}, {"name" : "Material", "pbrMetallicRoughness" : {"baseColorFactor" : [0.11764706, 0.11764706, 0.11764706, 1], "metallicFactor" : 0, "roughnessFactor" : 1}, "emissiveFactor" : [0, 0, 0], "alphaMode" : "OPAQUE", "doubleSided" : true}, {"name" : "Material", "pbrMetallicRoughness" : {"baseColorFactor" : [0.11764706, 0.11764706, 0.11764706, 1], "metallicFactor" : 0, "roughnessFactor" : 1}, "emissiveFactor" : [0, 0, 0], "alphaMode" : "OPAQUE", "doubleSided" : true}, {"name" : "Material", "pbrMetallicRoughness" : {"baseColorFactor" : [0.11764706, 0.11764706, 0.11764706, 1], "metallicFactor" : 0, "roughnessFactor" : 1}, "emissiveFactor" : [0, 0, 0], "alphaMode" : "OPAQUE", "doubleSided" : true}, {"name" : "Material", "pbrMetallicRoughness" : {"baseColorFactor" : [0.11764706, 0.11764706, 0.11764706, 1], "metallicFactor" : 0, "roughnessFactor" : 1}, "emissiveFactor" : [0, 0, 0], "alphaMode" : "OPAQUE", "doubleSided" : true}, {"name" : "Material", "pbrMetallicRoughness" : {"baseColorFactor" : [0.11764706, 0.11764706, 0.11764706, 1], "metallicFactor" : 0, "roughnessFactor" : 1}, "emissiveFactor" : [0, 0, 0], "alphaMode" : "OPAQUE", "doubleSided" : true}, {"name" : "Material", "pbrMetallicRoughness" : {"baseColorFactor" : [0.11764706, 0.11764706, 0.11764706, 1], "metallicFactor" : 0, "roughnessFactor" : 1}, "emissiveFactor" : [0, 0, 0], "alphaMode" : "OPAQUE", "doubleSided" : true}, {"name" : "Material", "pbrMetallicRoughness" : {"baseColorFactor" : [0.11764706, 0.11764706, 0.11764706, 1], "metallicFactor" : 0, "roughnessFactor" : 1}, "emissiveFactor" : [0, 0, 0], "alphaMode" : "OPAQUE", "doubleSided" : true}, {"name" : "Material", "pbrMetallicRoughness" : {"baseColorFactor" : [0.11764706, 0.11764706, 0.11764706, 1], "metallicFactor" : 0, "roughnessFactor" : 1}, "emissiveFactor" : [0, 0, 0], "alphaMode" : "OPAQUE", "doubleSided" : true}, {"name" : "Material", "pbrMetallicRoughness" : {"baseColorFactor" : [0.11764706, 0.11764706, 0.11764706, 1], "metallicFactor" : 0, "roughnessFactor" : 1}, "emissiveFactor" : [0, 0, 0], "alphaMode" : "OPAQUE", "doubleSided" : true}, {"name" : "Material", "pbrMetallicRoughness" : {"baseColorFactor" : [0.11764706, 0.11764706, 0.11764706, 1], "metallicFactor" : 0, "roughnessFactor" : 1}, "emissiveFactor" : [0, 0, 0], "alphaMode" : "OPAQUE", "doubleSided" : true}, {"name" : "Material", "pbrMetallicRoughness" : {"baseColorFactor" : [0.11764706, 0.11764706, 0.11764706, 1], "metallicFactor" : 0, "roughnessFactor" : 1}, "emissiveFactor" : [0, 0, 0], "alphaMode" : "OPAQUE", "doubleSided" : true}, {"name" : "Material", "pbrMetallicRoughness" : {"baseColorFactor" : [0.11764706, 0.11764706, 0.11764706, 1], "metallicFactor" : 0, "roughnessFactor" : 1}, "emissiveFactor" : [0, 0, 0], "alphaMode" : "OPAQUE", "doubleSided" : true}, {"name" : "Material", "pbrMetallicRoughness" : {"baseColorFactor" : [0.11764706, 0.11764706, 0.11764706, 1], "metallicFactor" : 0, "roughnessFactor" : 1}, "emissiveFactor" : [0, 0, 0], "alphaMode" : "OPAQUE", "doubleSided" : true}], "meshes" : [{"primitives" : [{"attributes" : {"POSITION" : 1}, "indices" : 0, "material" : 0, "mode" : 4}]}, {"primitives" : [{"attributes" : {"POSITION" : 3}, "indices" : 2, "material" : 1, "mode" : 4}]}, {"primitives" : [{"attributes" : {"POSITION" : 5}, "indices" : 4, "material" : 2, "mode" : 4}]}, {"primitives" : [{"attributes" : {"POSITION" : 7}, "indices" : 6, "material" : 3, "mode" : 4}]}, {"primitives" : [{"attributes" : {"POSITION" : 9}, "indices" : 8, "material" : 4, "mode" : 4}]}, {"primitives" : [{"attributes" : {"POSITION" : 11}, "indices" : 10, "material" : 5, "mode" : 4}]}, {"primitives" : [{"attributes" : {"POSITION" : 13}, "indices" : 12, "material" : 6, "mode" : 4}]}, {"primitives" : [{"attributes" : {"POSITION" : 15}, "indices" : 14, "material" : 7, "mode" : 4}]}, {"primitives" : [{"attributes" : {"POSITION" : 17}, "indices" : 16, "material" : 8, "mode" : 4}]}, {"primitives" : [{"attributes" : {"POSITION" : 19}, "indices" : 18, "material" : 9, "mode" : 4}]}, {"primitives" : [{"attributes" : {"POSITION" : 21}, "indices" : 20, "material" : 10, "mode" : 4}]}, {"primitives" : [{"attributes" : {"POSITION" : 23}, "indices" : 22, "material" : 11, "mode" : 4}]}, {"primitives" : [{"attributes" : {"POSITION" : 25}, "indices" : 24, "material" : 12, "mode" : 4}]}, {"primitives" : [{"attributes" : {"POSITION" : 27}, "indices" : 26, "material" : 13, "mode" : 4}]}], "nodes" : [{"mesh" : 0, "name" : "Node1"}, {"mesh" : 1, "name" : "Node2"}, {"mesh" : 2, "name" : "Node3"}, {"mesh" : 3, "name" : "Node4"}, {"mesh" : 4, "name" : "Node5"}, {"mesh" : 5, "name" : "Node6"}, {"mesh" : 6, "name" : "Node7"}, {"mesh" : 7, "name" : "Node8"}, {"mesh" : 8, "name" : "Node9"}, {"mesh" : 9, "name" : "Node10"}, {"mesh" : 10, "name" : "Node11"}, {"mesh" : 11, "name" : "Node12"}, {"mesh" : 12, "name" : "Node13"}, {"mesh" : 13, "name" : "Node14"}, {"children" : [0, 1, 2, 3, 4, 5, 6, 7, 8, 9, 10, 11, 12, 13], "name" : "Node0"}], "scene" : 0, "scenes" : [{"nodes" : [14]}]}