{"accessors" : [{"bufferView" : 0, "byteOffset" : 0, "componentType" : 5123, "count" : 82341, "type" : "SCALAR", "max" : [28583], "min" : [0]}, {"bufferView" : 1, "byteOffset" : 0, "componentType" : 5126, "count" : 28584, "type" : "VEC3", "max" : [187.5078582763672, 160.6689453125, 361.4004821777344], "min" : [146.9524688720703, -134.11422729492188, 66.61730194091797], "name" : "POSITION"}, {"bufferView" : 1, "byteOffset" : 12, "componentType" : 5126, "count" : 28584, "type" : "VEC3", "max" : [1.0000044107437134, 1.0000044107437134, 1.0000044107437134], "min" : [-1.0000044107437134, -1.0000044107437134, -1.0000041723251343], "name" : "NORMAL"}], "asset" : {"generator" : "Aspose.3D 24.9.1", "version" : "2.0"}, "buffers" : [{"uri" : "data:application/octet-stream;base64,", "byteLength" : 850708}], "bufferViews" : [{"buffer" : 0, "byteOffset" : 0, "byteLength" : 164684, "target" : 34963}, {"buffer" : 0, "byteOffset" : 164688, "byteLength" : 686016, "byteStride" : 24, "target" : 34962}], "materials" : [{"name" : "x1", "pbrMetallicRoughness" : {"baseColorFactor" : [0.85, 0.85, 0.85, 1], "metallicFactor" : 0.05, "roughnessFactor" : 0.5}, "emissiveFactor" : [0, 0, 0], "alphaMode" : "OPAQUE", "doubleSided" : true}], "meshes" : [{"primitives" : [{"attributes" : {"POSITION" : 1, "NORMAL" : 2}, "indices" : 0, "material" : 0, "mode" : 4}]}], "nodes" : [{"mesh" : 0, "name" : "Node1"}, {"children" : [0], "name" : "Node0"}], "scene" : 0, "scenes" : [{"nodes" : [1]}]}